<svg version="1.1" xmlns="http://www.w3.org/2000/svg" viewBox="0 0 272.7950439453125 221.00717163085938" width="272.7950439453125" height="221.00717163085938" class="excalidraw-svg"><!-- svg-source:excalidraw --><metadata></metadata><defs><style class="style-fonts">
      </style></defs><rect x="0" y="0" width="272.7950439453125" height="221.00717163085938" fill="#121212"></rect><g stroke-linecap="round" transform="translate(10 10) rotate(0 126.39752197265625 100.50358581542969)"><path d="M32 0 C104.12 -0.34, 179.24 -0.01, 220.8 0 M32 0 C96.81 -0.65, 161.41 -0.21, 220.8 0 M220.8 0 C241.14 -0.13, 250.94 9.66, 252.8 32 M220.8 0 C239.85 -1.96, 252.86 10.44, 252.8 32 M252.8 32 C253.53 75.68, 251.24 123.21, 252.8 169.01 M252.8 32 C252.87 76.27, 251.72 120.83, 252.8 169.01 M252.8 169.01 C252.36 190.63, 243.65 201.2, 220.8 201.01 M252.8 169.01 C254.88 188.5, 240.96 201.2, 220.8 201.01 M220.8 201.01 C174.27 200.65, 130.4 200, 32 201.01 M220.8 201.01 C161.87 201.1, 105.16 199.19, 32 201.01 M32 201.01 C9.18 200.17, -0.02 189.82, 0 169.01 M32 201.01 C8.65 201.95, 1.27 192.06, 0 169.01 M0 169.01 C0.91 128.07, -0.7 87.2, 0 32 M0 169.01 C1.02 119.52, 1.17 69.61, 0 32 M0 32 C-0.07 11.78, 8.71 -1.15, 32 0 M0 32 C1.93 12.41, 10.64 -1.88, 32 0" stroke="#d3d3d3" stroke-width="2" fill="none"></path></g></svg>